<svg xmlns="http://www.w3.org/2000/svg" viewBox="0 0 147.27 134.00" width="147" height="134" fill="none"><defs></defs><g transform="matrix(1.00000 0.00000 0.00000 1.00000 12.218 76.344)"><path d="M16.07 38.52C14.94 36.24 13.92 34.36 13.04 32.01C12.15 29.66 10.98 26.43 10.98 26.43C10.69 25.26 10.32 24.22 10.10 23.79C9.87 23.36 9.68 22.56 9.46 22.13L9.46 22.13C9.02 21.30 8.58 20.47 8.15 19.62C7.65 18.50 7.08 17.41 6.45 16.35C5.90 15.55 5.11 15.21 4.28 14.86L4.28 14.86C4.02 14.75 3.76 14.64 3.50 14.52C2.63 14.08 1.90 13.41 1.38 12.59C0.34 10.93 0.11 8.88 0.03 6.98C-0.03 5.18 -0.10 3.06 1.05 1.58C1.35 1.22 1.72 0.92 2.14 0.71C2.56 0.50 3.02 0.38 3.50 0.36C4.46 0.28 5.45 0.30 6.43 0.31C6.84 0.32 7.24 0.33 7.65 0.33L111.34 0.01L115.64 0.01C115.77 0.01 115.89 0.00 116.02 0.00C117.09 -0.01 118.23 -0.02 119.16 0.56C120.72 1.52 121.02 3.49 120.93 5.17C120.85 6.25 120.68 7.32 120.45 8.38C120.26 9.66 120.00 10.93 119.67 12.19C119.55 12.66 119.30 13.10 118.95 13.43C118.59 13.77 118.14 14.00 117.66 14.10C117.30 14.17 116.94 14.20 116.58 14.24C115.91 14.30 115.26 14.36 114.63 14.66C112.77 15.55 111.60 17.44 110.65 19.18C109.54 21.23 108.52 23.33 107.51 25.43C107.35 25.76 107.20 26.08 107.04 26.40C106.18 28.18 105.33 29.97 104.48 31.75C102.93 35.01 101.38 38.28 99.76 41.51L99.54 41.95C97.64 45.76 95.72 49.60 92.51 52.51C89.62 55.11 85.99 56.74 82.12 57.19C79.63 57.49 77.08 57.44 74.58 57.40L74.12 57.39C72.96 57.37 71.80 57.33 70.64 57.30L70.64 57.30C69.00 57.26 67.37 57.21 65.73 57.19C62.21 57.16 58.70 57.29 55.19 57.41C53.02 57.49 50.86 57.57 48.69 57.61C44.07 57.70 39.38 57.74 34.82 56.83C32.58 56.44 30.39 55.86 28.25 55.10C26.68 54.52 25.26 53.60 24.10 52.41C22.87 51.04 21.82 49.53 20.95 47.91C20.11 46.45 19.32 44.96 18.56 43.46C17.72 41.82 16.90 40.17 16.07 38.52Z" fill="#0C368A" fill-opacity="1.000" fill-rule="evenodd"/></g><g transform="matrix(1.00000 0.00000 0.00000 1.00000 25.414 45.108)"><g transform="matrix(1.00000 0.00000 0.00000 1.00000 0.000 44.815)"><path d="M0.36 0.97C12.58 1.00 24.80 1.00 37.02 1.05L73.49 1.23C80.36 1.26 87.22 1.27 94.07 1.12C94.19 1.11 94.31 1.06 94.39 0.97C94.48 0.87 94.52 0.75 94.52 0.63C94.52 0.51 94.48 0.39 94.39 0.29C94.31 0.20 94.19 0.15 94.07 0.14C81.85 -0.12 69.62 0.05 57.41 0.11C45.25 0.17 33.08 0.21 20.92 0.25L0.34 0.29C0.25 0.29 0.16 0.33 0.10 0.39C0.04 0.45 0.00 0.54 0.00 0.63C0.00 0.72 0.04 0.80 0.10 0.87C0.16 0.93 0.25 0.97 0.34 0.97L0.36 0.97Z" fill="#FFFFFF" fill-opacity="1.000" fill-rule="evenodd"/></g><g transform="matrix(1.00000 0.00000 0.00000 1.00000 22.004 56.244)"><path d="M1.15 8.02C0.75 6.02 0.36 4.02 0.01 2.00L0.01 2.01C-0.01 1.92 0.01 1.84 0.04 1.77C0.05 1.76 0.05 1.76 0.05 1.75C0.05 1.41 0.13 1.08 0.29 0.79C0.45 0.50 0.68 0.25 0.96 0.06C1.03 0.03 1.11 0.01 1.18 0.00C1.26 -0.00 1.34 0.01 1.41 0.04C1.48 0.07 1.55 0.11 1.60 0.17C1.65 0.22 1.69 0.29 1.71 0.37C2.53 2.66 3.19 5.01 3.68 7.39C4.12 9.51 4.44 11.65 4.64 13.80C4.65 13.92 4.67 14.06 4.69 14.21C4.80 14.94 4.95 15.96 4.35 16.38C3.57 16.93 2.91 15.81 2.67 15.22C2.37 14.47 2.23 13.65 2.08 12.84C2.04 12.60 2.00 12.36 1.95 12.12L1.30 8.81C1.25 8.54 1.20 8.28 1.15 8.02Z" fill="#FFFFFF" fill-opacity="1.000" fill-rule="evenodd"/></g><g transform="matrix(1.00000 0.00000 0.00000 1.00000 31.908 56.244)"><path d="M1.14 8.02C0.75 6.02 0.35 4.02 0.01 2.00L0.01 2.01C-0.01 1.92 0.01 1.84 0.04 1.78C0.04 1.77 0.04 1.76 0.04 1.75C0.04 1.41 0.13 1.08 0.29 0.79C0.45 0.50 0.68 0.25 0.96 0.06C1.03 0.03 1.11 0.01 1.18 0.00C1.26 -0.00 1.34 0.01 1.41 0.04C1.48 0.07 1.54 0.11 1.60 0.17C1.65 0.23 1.69 0.29 1.71 0.37C2.53 2.66 3.19 5.00 3.68 7.39C4.12 9.51 4.44 11.65 4.64 13.80C4.65 13.92 4.67 14.06 4.69 14.21C4.80 14.94 4.95 15.96 4.35 16.38C3.57 16.93 2.90 15.81 2.67 15.22C2.37 14.47 2.22 13.65 2.08 12.84C2.04 12.60 1.99 12.36 1.95 12.12L1.30 8.81C1.24 8.54 1.19 8.28 1.14 8.02Z" fill="#FFFFFF" fill-opacity="1.000" fill-rule="evenodd"/></g><g transform="matrix(1.00000 0.00000 0.00000 1.00000 41.814 56.244)"><path d="M1.10 7.82C0.71 5.88 0.33 3.95 0.00 2.00L0.01 2.00C0.00 1.93 0.01 1.86 0.03 1.80C0.03 1.79 0.03 1.77 0.03 1.75C0.03 1.41 0.12 1.08 0.28 0.79C0.44 0.49 0.67 0.25 0.95 0.06C1.02 0.03 1.10 0.01 1.17 0.00C1.25 -0.00 1.33 0.01 1.40 0.04C1.47 0.07 1.53 0.11 1.59 0.17C1.64 0.23 1.68 0.29 1.70 0.37C2.52 2.66 3.18 5.01 3.67 7.39C4.11 9.51 4.43 11.65 4.62 13.80C4.64 13.92 4.66 14.06 4.68 14.21C4.78 14.94 4.93 15.96 4.33 16.38C3.56 16.93 2.89 15.81 2.66 15.22C2.32 14.21 2.08 13.17 1.94 12.12L1.29 8.81C1.23 8.48 1.16 8.15 1.10 7.82Z" fill="#FFFFFF" fill-opacity="1.000" fill-rule="evenodd"/></g><g transform="matrix(1.00000 0.00000 0.00000 1.00000 51.710 56.243)"><path d="M1.14 8.02C0.74 6.02 0.35 4.02 0.00 2.00L0.03 2.03C0.01 1.95 0.02 1.88 0.05 1.83C0.05 1.81 0.05 1.79 0.05 1.77C0.04 1.43 0.12 1.10 0.28 0.80C0.44 0.50 0.67 0.25 0.95 0.07C1.01 0.03 1.09 0.01 1.17 0.00C1.24 -0.00 1.32 0.01 1.39 0.04C1.46 0.07 1.53 0.11 1.58 0.17C1.63 0.23 1.67 0.29 1.69 0.37C2.51 2.66 3.17 5.01 3.66 7.39C4.11 9.51 4.43 11.65 4.63 13.80C4.64 13.92 4.66 14.06 4.68 14.21C4.79 14.95 4.94 15.96 4.34 16.38C3.56 16.93 2.90 15.81 2.66 15.22C2.36 14.47 2.22 13.65 2.07 12.84C2.03 12.60 1.99 12.36 1.94 12.12L1.29 8.81C1.24 8.55 1.19 8.28 1.14 8.02Z" fill="#FFFFFF" fill-opacity="1.000" fill-rule="evenodd"/></g><g transform="matrix(1.00000 0.00000 0.00000 1.00000 61.610 56.244)"><path d="M1.10 7.82C0.71 5.88 0.33 3.95 0.00 2.00L0.01 2.01C-0.01 1.92 0.01 1.84 0.05 1.77C0.05 1.77 0.05 1.76 0.05 1.75C0.05 1.41 0.13 1.08 0.29 0.79C0.45 0.50 0.69 0.25 0.97 0.06C1.04 0.03 1.11 0.01 1.19 0.00C1.26 -0.00 1.34 0.01 1.41 0.04C1.48 0.07 1.55 0.11 1.60 0.17C1.65 0.23 1.69 0.29 1.71 0.37C2.53 2.66 3.19 5.01 3.67 7.39C4.11 9.51 4.43 11.65 4.63 13.80C4.64 13.92 4.66 14.06 4.69 14.21C4.79 14.94 4.94 15.96 4.34 16.38C3.56 16.93 2.90 15.81 2.66 15.22C2.36 14.47 2.22 13.65 2.07 12.84C2.03 12.60 1.99 12.36 1.94 12.12L1.29 8.81C1.23 8.48 1.16 8.15 1.10 7.82Z" fill="#FFFFFF" fill-opacity="1.000" fill-rule="evenodd"/></g><g transform="matrix(1.00000 0.00000 0.00000 1.00000 8.575 0.000)"><path d="M7.19 29.52C5.15 23.09 3.38 16.59 1.86 10.03C1.53 8.62 1.01 7.03 1.31 5.58C1.57 4.27 2.59 3.46 3.77 2.96C5.20 2.41 6.70 2.05 8.23 1.91C9.87 1.70 11.52 1.62 13.17 1.55C16.61 1.39 20.05 1.31 23.49 1.29C26.36 1.29 29.43 1.07 32.22 1.88C33.51 2.23 34.68 2.93 35.59 3.89C36.46 4.90 37.13 6.05 37.59 7.29C38.80 10.31 39.75 13.44 40.84 16.51C43.11 23.00 45.38 29.50 47.65 35.99C47.93 36.78 48.21 37.58 48.48 38.37L48.80 37.59C48.48 37.81 48.24 38.14 48.13 38.52C48.02 38.90 48.04 39.30 48.19 39.66C48.35 40.03 48.65 40.32 49.02 40.48C49.40 40.63 49.82 40.64 50.19 40.49C50.58 40.37 50.91 40.10 51.10 39.74C51.30 39.38 51.35 38.96 51.24 38.57C51.11 38.15 50.82 37.80 50.44 37.59C50.05 37.37 49.60 37.31 49.17 37.42C49.05 37.46 48.94 37.54 48.86 37.64C48.77 37.75 48.72 37.87 48.70 38.00C48.69 38.13 48.71 38.26 48.76 38.38C48.81 38.50 48.90 38.61 49.01 38.68C49.31 38.89 48.98 39.58 48.64 39.57L49.33 40.06C49.28 39.94 49.27 39.80 49.28 39.67C49.30 39.60 49.33 39.53 49.35 39.46C49.35 39.46 49.24 39.51 49.23 39.50C49.20 39.45 49.19 39.39 49.20 39.34C49.20 39.28 49.22 39.23 49.25 39.18L50.40 39.49L50.19 38.77C49.94 37.92 48.62 38.28 48.86 39.13L49.07 39.85C49.10 39.96 49.17 40.07 49.25 40.15C49.34 40.23 49.45 40.29 49.56 40.32C49.68 40.36 49.80 40.36 49.91 40.33C50.03 40.30 50.14 40.24 50.22 40.15C51.06 39.44 50.26 38.11 49.28 38.10C48.07 38.10 47.72 39.49 47.98 40.43C48.02 40.58 48.11 40.70 48.23 40.79C48.35 40.89 48.50 40.94 48.65 40.94C50.46 40.97 51.13 38.45 49.71 37.47L49.54 38.73C49.85 38.66 50.08 39.05 49.73 39.18C49.67 39.20 49.61 39.20 49.56 39.18C49.51 39.16 49.46 39.12 49.44 39.07C49.41 39.02 49.40 38.96 49.41 38.90C49.43 38.84 49.46 38.79 49.50 38.76C49.63 38.68 49.73 38.56 49.78 38.42C49.84 38.28 49.85 38.13 49.82 37.99C47.44 31.24 45.06 24.49 42.68 17.75C41.53 14.47 40.41 11.18 39.21 7.93C38.23 5.27 36.92 2.62 34.26 1.29C31.60 -0.03 28.60 0.01 25.73 0.00C22.14 0.00 18.55 0.06 14.96 0.19C11.53 0.32 8.00 0.39 4.67 1.33C3.40 1.69 2.08 2.23 1.17 3.21C0.12 4.33 -0.13 5.83 0.06 7.31C0.34 8.93 0.71 10.54 1.19 12.12C1.63 13.82 2.09 15.51 2.57 17.21C3.51 20.56 4.53 23.90 5.62 27.21C5.89 28.05 6.17 28.89 6.45 29.73C6.60 30.19 7.33 30.00 7.17 29.53L7.19 29.52Z" fill="#0C368A" fill-opacity="1.000" fill-rule="evenodd"/></g></g><g transform="matrix(1.00000 0.00000 0.00000 1.00000 81.812 0.000)"><path d="M6.64 47.31C9.73 48.12 12.88 48.68 16.06 48.97C17.27 49.08 18.63 48.97 19.17 47.69C19.35 47.10 19.48 46.50 19.57 45.89C19.70 45.36 19.89 44.85 20.12 44.36C21.15 42.24 22.98 40.63 24.82 39.22C26.80 37.69 28.90 36.34 30.78 34.67C34.86 31.07 38.08 26.28 38.97 20.85C39.44 18.09 39.28 15.25 38.50 12.56C37.72 10.05 36.34 7.76 34.47 5.91C30.75 2.20 25.55 0.30 20.35 0.03C17.26 -0.10 14.17 0.22 11.16 0.96C9.64 1.33 8.14 1.77 6.66 2.29C5.51 2.67 4.40 3.18 3.36 3.80C1.46 4.99 -0.28 6.87 0.04 9.27C0.24 10.70 1.12 12.03 1.87 13.26C2.66 14.58 3.50 15.88 4.38 17.14C5.26 18.41 6.16 19.63 7.09 20.79C7.94 21.87 8.81 23.14 10.01 23.86C11.21 24.58 12.69 24.46 13.98 23.93C15.28 23.39 16.41 22.44 17.71 21.87C18.73 21.42 19.96 21.29 20.89 22.03C22.03 22.93 21.17 24.29 20.43 25.16C18.74 27.11 16.42 28.34 14.31 29.79C13.21 30.52 12.20 31.36 11.28 32.31C10.37 33.30 9.57 34.39 8.92 35.57C8.24 36.79 7.65 38.05 7.15 39.34C6.62 40.64 6.09 41.97 5.69 43.32C5.28 44.68 5.18 45.98 5.77 47.31C6.02 47.88 6.85 47.39 6.61 46.82C6.05 45.55 6.61 43.95 7.04 42.71C7.48 41.48 7.95 40.22 8.46 39.01C9.45 36.59 10.75 34.20 12.71 32.39C14.54 30.70 16.79 29.56 18.79 28.08C19.80 27.36 20.71 26.51 21.50 25.56C22.27 24.59 22.89 23.35 22.33 22.13C21.89 21.17 20.86 20.59 19.84 20.44C18.59 20.25 17.40 20.72 16.33 21.32C15.13 22.00 14.02 22.85 12.64 23.12C11.26 23.39 10.27 22.62 9.41 21.64C7.49 19.40 5.73 17.02 4.15 14.52C3.37 13.31 2.61 12.07 1.93 10.80C1.38 9.77 1.05 8.64 1.51 7.53C2.31 5.57 4.62 4.40 6.50 3.71C9.28 2.67 12.18 1.93 15.13 1.52C20.42 0.83 25.92 1.52 30.50 4.36C32.54 5.60 34.28 7.27 35.60 9.26C37.03 11.47 37.85 14.01 38.00 16.63C38.32 22.00 36.12 27.11 32.65 31.13C30.96 33.04 29.06 34.75 26.99 36.23C25.12 37.61 23.19 38.94 21.57 40.60C20.01 42.18 18.79 44.09 18.43 46.30C18.34 46.85 18.30 47.55 17.74 47.84C17.18 48.12 16.55 48.03 15.99 47.99C14.41 47.88 12.84 47.70 11.29 47.45C9.81 47.20 8.33 46.90 6.87 46.53C6.78 46.51 6.67 46.54 6.59 46.59C6.50 46.64 6.44 46.73 6.42 46.82C6.39 46.92 6.40 47.02 6.44 47.11C6.49 47.20 6.57 47.27 6.66 47.31L6.64 47.31Z" fill="#000000" fill-opacity="1.000" fill-rule="evenodd"/></g><g transform="matrix(1.00000 0.00000 0.00000 1.00000 85.469 52.989)"><path d="M13.79 0.57C12.14 0.30 10.48 0.13 8.81 0.06C7.26 -0.05 5.70 -0.01 4.16 0.17C3.52 0.24 2.90 0.44 2.34 0.76C1.78 1.08 1.29 1.51 0.91 2.03C0.23 3.01 0.03 4.26 0.00 5.42C-0.01 6.02 0.02 6.62 0.08 7.22C0.09 7.90 0.23 8.58 0.48 9.21C0.81 9.77 1.33 10.20 1.95 10.41C2.67 10.70 3.42 10.92 4.19 11.06C5.71 11.31 7.27 11.38 8.81 11.28C10.28 11.20 11.85 11.12 13.12 10.28C14.32 9.45 15.17 8.22 15.53 6.82C15.99 5.13 15.68 3.32 15.09 1.71C14.85 1.07 13.84 1.33 14.05 1.99C14.80 4.29 14.78 7.12 12.88 8.88C11.95 9.74 10.76 9.94 9.54 10.04C8.18 10.17 6.82 10.19 5.46 10.09C4.81 10.03 4.17 9.92 3.54 9.75C2.90 9.64 2.28 9.40 1.74 9.04C1.32 8.69 1.28 8.10 1.22 7.60C1.16 7.04 1.11 6.48 1.10 5.92C1.02 4.89 1.20 3.86 1.62 2.91C1.88 2.45 2.24 2.06 2.67 1.75C3.10 1.45 3.60 1.25 4.12 1.16C5.60 0.84 7.20 0.89 8.71 0.90C10.36 0.92 12.03 1.03 13.67 1.20C14.03 1.24 14.14 0.61 13.76 0.55L13.79 0.57Z" fill="#000000" fill-opacity="1.000" fill-rule="evenodd"/></g><g transform="matrix(1.00000 0.00000 0.00000 1.00000 0.000 7.208)"><g transform="matrix(1.00000 0.00000 0.00000 1.00000 0.000 0.000)"><path d="M9.91 0.03C6.98 1.10 4.48 3.09 2.79 5.71C0.87 8.61 0.01 12.11 0.00 15.56C-0.00 17.38 0.21 19.20 0.63 20.98C0.97 22.59 1.60 24.13 2.48 25.53C4.16 28.04 7.45 29.93 10.51 28.76C13.26 27.72 14.71 23.91 12.57 21.61C12.47 21.51 12.33 21.46 12.19 21.46C12.05 21.46 11.92 21.51 11.81 21.61C9.49 23.85 9.83 27.36 10.71 30.18C11.60 33.05 13.07 36.05 15.31 38.12C16.54 39.30 18.11 40.05 19.79 40.28C19.94 40.28 20.07 40.22 20.18 40.12C20.28 40.02 20.33 39.88 20.33 39.74C20.33 39.60 20.28 39.46 20.18 39.36C20.07 39.26 19.94 39.20 19.79 39.20C17.01 38.84 15.02 36.57 13.69 34.29C12.32 31.93 11.16 29.14 11.11 26.37C11.08 24.87 11.47 23.40 12.55 22.33L11.81 22.33C13.39 24.00 12.26 26.90 10.30 27.72C7.57 28.87 4.61 27.04 3.17 24.76C1.54 22.17 0.98 18.85 0.93 15.85C0.83 12.67 1.60 9.52 3.16 6.75C4.72 4.03 7.19 1.93 10.13 0.83C10.64 0.65 10.42 -0.15 9.91 0.03Z" fill="#00E398" fill-opacity="1.000" fill-rule="evenodd"/></g><g transform="matrix(1.00000 0.00000 0.00000 1.00000 32.319 11.705)"><path d="M0.03 0.51C2.27 5.56 4.27 10.71 6.02 15.95C6.18 16.43 6.95 16.22 6.79 15.74C4.98 10.46 2.92 5.28 0.61 0.17C0.43 -0.22 -0.14 0.12 0.03 0.51Z" fill="#18C4FF" fill-opacity="1.000" fill-rule="evenodd"/></g><g transform="matrix(1.00000 0.00000 0.00000 1.00000 53.881 7.980)"><path d="M0.04 0.30L0.00 17.45C0.00 17.55 0.04 17.64 0.11 17.71C0.18 17.78 0.27 17.82 0.37 17.82C0.47 17.82 0.57 17.78 0.64 17.71C0.71 17.64 0.75 17.55 0.75 17.45L0.70 0.30C0.70 0.22 0.66 0.14 0.60 0.09C0.54 0.03 0.46 0.00 0.37 0.00C0.29 0.00 0.21 0.03 0.15 0.09C0.09 0.14 0.05 0.22 0.04 0.30L0.04 0.30Z" fill="#18C4FF" fill-opacity="1.000" fill-rule="evenodd"/></g><g transform="matrix(1.00000 0.00000 0.00000 1.00000 70.333 9.786)"><path d="M4.43 0.18L0.01 14.82C-0.01 14.91 0.01 15.01 0.06 15.10C0.11 15.18 0.20 15.24 0.29 15.27C0.39 15.30 0.49 15.29 0.58 15.24C0.67 15.20 0.74 15.12 0.78 15.03L5.11 0.36C5.11 0.28 5.09 0.21 5.04 0.14C4.99 0.08 4.92 0.03 4.85 0.01C4.77 -0.01 4.69 -0.00 4.62 0.03C4.54 0.06 4.48 0.11 4.44 0.18L4.43 0.18Z" fill="#18C4FF" fill-opacity="1.000" fill-rule="evenodd"/></g><g transform="matrix(1.00000 0.00000 0.00000 1.00000 77.057 30.281)"><path d="M0.60 2.14C1.79 1.50 3.06 1.04 4.38 0.78C4.48 0.75 4.57 0.69 4.62 0.59C4.67 0.50 4.69 0.39 4.66 0.29C4.63 0.19 4.56 0.10 4.47 0.05C4.38 0.00 4.27 -0.01 4.17 0.01C2.78 0.29 1.44 0.78 0.19 1.45C-0.25 1.69 0.15 2.37 0.59 2.13L0.60 2.14Z" fill="#18C4FF" fill-opacity="1.000" fill-rule="evenodd"/></g><g transform="matrix(1.00000 0.00000 0.00000 1.00000 126.559 8.807)"><path d="M14.51 0.73C16.85 1.65 18.30 3.94 19.07 6.22C19.76 8.32 20.00 10.54 19.79 12.74C19.38 17.12 17.45 21.21 14.32 24.32C12.78 25.87 10.95 27.10 8.93 27.94C7.92 28.35 6.71 28.78 5.60 28.51C5.34 28.46 5.09 28.35 4.88 28.19C4.78 27.99 4.73 27.77 4.75 27.55C4.77 27.03 4.93 26.52 5.21 26.08C5.50 25.62 5.88 25.23 6.34 24.93C6.79 24.64 7.31 24.44 7.85 24.37C8.40 24.33 8.96 24.40 9.49 24.58C10.02 24.76 10.50 25.05 10.91 25.42C13.00 27.22 13.35 30.04 12.81 32.61C12.28 35.19 11.16 37.85 9.41 39.84C7.75 41.73 5.28 43.05 2.69 42.69C2.09 42.61 1.49 42.42 0.95 42.14L1.17 42.98C1.89 41.82 2.78 40.61 4.06 40.04C5.07 39.59 6.48 39.62 7.24 40.51C8.05 41.46 7.74 42.89 7.24 43.91C6.63 45.12 5.77 46.19 4.71 47.04C3.51 48.05 2.12 48.82 0.62 49.30C-0.10 49.53 0.21 50.63 0.93 50.42C4.02 49.52 7.12 47.28 8.43 44.28C9.05 42.88 9.28 41.16 8.30 39.86C7.36 38.62 5.69 38.29 4.23 38.67C2.35 39.17 1.07 40.79 0.08 42.36C0.00 42.50 -0.02 42.67 0.02 42.82C0.06 42.98 0.16 43.11 0.30 43.20C2.91 44.54 6.15 44.00 8.47 42.30C10.91 40.50 12.40 37.79 13.36 34.98C14.35 32.10 14.74 28.64 12.92 25.99C11.44 23.83 8.63 22.43 6.12 23.76C5.56 24.06 5.06 24.46 4.66 24.95C4.26 25.44 3.97 26.01 3.79 26.62C3.62 27.23 3.62 27.87 3.79 28.48C3.97 29.07 4.74 29.39 5.30 29.52C6.60 29.82 7.96 29.41 9.17 28.92C10.31 28.45 11.40 27.86 12.42 27.15C16.52 24.26 19.36 19.91 20.35 15.00C20.84 12.59 20.83 10.11 20.32 7.70C19.76 5.16 18.55 2.55 16.41 0.95C15.89 0.57 15.32 0.26 14.71 0.03C14.27 -0.14 14.09 0.55 14.52 0.75L14.51 0.73Z" fill="#18C4FF" fill-opacity="1.000" fill-rule="evenodd"/></g></g><g transform="matrix(1.00000 0.00000 0.00000 1.00000 87.507 64.015)"><path d="M51.09 25.55C51.09 39.66 39.66 51.09 25.55 51.09C11.44 51.09 0.00 39.66 0.00 25.55C0.00 11.44 11.44 0.00 25.55 0.00C39.66 0.00 51.09 11.44 51.09 25.55Z" fill="#FF60C3" fill-opacity="1.000" fill-rule="evenodd"/></g><g transform="matrix(0.99999 0.00524 -0.00524 0.99999 102.111 75.809)"><path d="M17.25 10.02C17.25 4.22 15.75 1.32 12.75 1.32C10.73 1.32 9.06 2.12 7.72 3.71C7.13 4.40 6.56 4.74 6.01 4.74C5.68 4.74 5.60 4.59 5.77 4.30C7.75 1.43 10.34 0.00 13.54 0.00C16.76 0.00 18.88 1.78 19.89 5.33C20.28 6.73 20.47 8.42 20.47 10.41C20.47 12.39 20.03 14.79 19.15 17.59C17.72 22.25 15.59 25.65 12.75 27.80C11.16 29.04 9.50 29.66 7.77 29.66C6.08 29.66 4.63 29.25 3.42 28.44C2.25 27.59 1.42 26.50 0.93 25.16C0.31 23.44 0.00 21.76 0.00 20.13C0.00 18.47 0.20 16.87 0.59 15.34C0.98 13.81 1.51 12.31 2.20 10.85C2.88 9.35 3.78 8.05 4.89 6.94C5.99 5.83 7.18 5.10 8.45 4.74C8.65 4.67 8.80 4.72 8.89 4.89C9.02 5.05 9.07 5.24 9.04 5.47C9.01 5.70 8.93 5.83 8.80 5.86C7.75 6.16 6.79 7.13 5.91 8.80C4.19 11.92 3.32 16.04 3.32 21.16C3.32 23.21 3.70 24.97 4.45 26.43C5.20 27.87 6.27 28.58 7.67 28.58C10.44 28.58 12.79 26.32 14.71 21.79C16.40 17.85 17.25 13.93 17.25 10.02Z" fill="#FFFFFF" fill-opacity="1.000" fill-rule="evenodd"/></g></svg>